<mxfile host="app.diagrams.net" agent="Mozilla/5.0 (Windows NT 10.0; Win64; x64; rv:138.0) Gecko/20100101 Firefox/138.0" version="27.0.5">
  <diagram name="Page-1" id="5mqavmqf-KSKa9qUVFey">
    <mxGraphModel dx="1971" dy="823" grid="1" gridSize="10" guides="1" tooltips="1" connect="1" arrows="1" fold="1" page="1" pageScale="1" pageWidth="827" pageHeight="1169" math="0" shadow="0">
      <root>
        <mxCell id="0" />
        <mxCell id="1" parent="0" />
        <mxCell id="b5eQ8oIe91yAA5OlFWOd-79" value="" style="outlineConnect=0;dashed=0;verticalLabelPosition=bottom;verticalAlign=top;align=center;html=1;shape=mxgraph.aws3.internet_3;fillColor=#D2D3D3;gradientColor=none;" parent="1" vertex="1">
          <mxGeometry x="220" y="470" width="60" height="60" as="geometry" />
        </mxCell>
        <mxCell id="b5eQ8oIe91yAA5OlFWOd-83" style="edgeStyle=orthogonalEdgeStyle;rounded=0;orthogonalLoop=1;jettySize=auto;html=1;" parent="1" source="b5eQ8oIe91yAA5OlFWOd-81" target="b5eQ8oIe91yAA5OlFWOd-79" edge="1">
          <mxGeometry relative="1" as="geometry" />
        </mxCell>
        <mxCell id="b5eQ8oIe91yAA5OlFWOd-76" value="AWS Cloud" style="points=[[0,0],[0.25,0],[0.5,0],[0.75,0],[1,0],[1,0.25],[1,0.5],[1,0.75],[1,1],[0.75,1],[0.5,1],[0.25,1],[0,1],[0,0.75],[0,0.5],[0,0.25]];outlineConnect=0;gradientColor=none;html=1;whiteSpace=wrap;fontSize=12;fontStyle=0;container=1;pointerEvents=0;collapsible=0;recursiveResize=0;shape=mxgraph.aws4.group;grIcon=mxgraph.aws4.group_aws_cloud_alt;strokeColor=#232F3E;fillColor=none;verticalAlign=top;align=left;spacingLeft=30;fontColor=#232F3E;dashed=0;" parent="1" vertex="1">
          <mxGeometry width="820" height="440" as="geometry" />
        </mxCell>
        <mxCell id="b5eQ8oIe91yAA5OlFWOd-77" value="&lt;div&gt;Region US-EAST&lt;/div&gt;" style="points=[[0,0],[0.25,0],[0.5,0],[0.75,0],[1,0],[1,0.25],[1,0.5],[1,0.75],[1,1],[0.75,1],[0.5,1],[0.25,1],[0,1],[0,0.75],[0,0.5],[0,0.25]];outlineConnect=0;gradientColor=none;html=1;whiteSpace=wrap;fontSize=12;fontStyle=0;container=1;pointerEvents=0;collapsible=0;recursiveResize=0;shape=mxgraph.aws4.group;grIcon=mxgraph.aws4.group_region;strokeColor=#00A4A6;fillColor=none;verticalAlign=top;align=left;spacingLeft=30;fontColor=#147EBA;dashed=1;" parent="b5eQ8oIe91yAA5OlFWOd-76" vertex="1">
          <mxGeometry y="30" width="800" height="400" as="geometry" />
        </mxCell>
        <mxCell id="b5eQ8oIe91yAA5OlFWOd-78" value="&lt;span style=&quot;color: rgb(0, 0, 0);&quot;&gt;VPC 10.0.0.0/16&lt;/span&gt;" style="points=[[0,0],[0.25,0],[0.5,0],[0.75,0],[1,0],[1,0.25],[1,0.5],[1,0.75],[1,1],[0.75,1],[0.5,1],[0.25,1],[0,1],[0,0.75],[0,0.5],[0,0.25]];outlineConnect=0;gradientColor=none;html=1;whiteSpace=wrap;fontSize=12;fontStyle=0;container=1;pointerEvents=0;collapsible=0;recursiveResize=0;shape=mxgraph.aws4.group;grIcon=mxgraph.aws4.group_vpc2;strokeColor=#8C4FFF;fillColor=none;verticalAlign=top;align=left;spacingLeft=30;fontColor=#AAB7B8;dashed=0;" parent="b5eQ8oIe91yAA5OlFWOd-77" vertex="1">
          <mxGeometry x="10" y="30" width="550" height="360" as="geometry" />
        </mxCell>
        <mxCell id="b5eQ8oIe91yAA5OlFWOd-86" value="Availability Zone US-EAST-1" style="fillColor=none;strokeColor=#147EBA;dashed=1;verticalAlign=top;fontStyle=0;fontColor=#147EBA;whiteSpace=wrap;html=1;" parent="b5eQ8oIe91yAA5OlFWOd-78" vertex="1">
          <mxGeometry x="10" y="30" width="530" height="210" as="geometry" />
        </mxCell>
        <mxCell id="b5eQ8oIe91yAA5OlFWOd-80" value="Internet gateway (IGW-ID)" style="text;html=1;align=center;verticalAlign=middle;whiteSpace=wrap;rounded=0;" parent="b5eQ8oIe91yAA5OlFWOd-78" vertex="1">
          <mxGeometry x="213.53235294117647" y="246" width="52.941176470588225" height="30" as="geometry" />
        </mxCell>
        <mxCell id="b5eQ8oIe91yAA5OlFWOd-81" value="" style="sketch=0;outlineConnect=0;fontColor=#232F3E;gradientColor=none;fillColor=#8C4FFF;strokeColor=none;dashed=0;verticalLabelPosition=bottom;verticalAlign=top;align=center;html=1;fontSize=12;fontStyle=0;aspect=fixed;pointerEvents=1;shape=mxgraph.aws4.internet_gateway;" parent="b5eQ8oIe91yAA5OlFWOd-78" vertex="1">
          <mxGeometry x="218.58823529411768" y="290.00000000000006" width="42.82006920415225" height="42.82006920415225" as="geometry" />
        </mxCell>
        <mxCell id="b5eQ8oIe91yAA5OlFWOd-91" value="&lt;div&gt;Private subnet&lt;/div&gt;&lt;div&gt;10.0.3.0/24 10.0.4.0 /24&lt;/div&gt;&lt;div&gt;&lt;br&gt;&lt;/div&gt;" style="points=[[0,0],[0.25,0],[0.5,0],[0.75,0],[1,0],[1,0.25],[1,0.5],[1,0.75],[1,1],[0.75,1],[0.5,1],[0.25,1],[0,1],[0,0.75],[0,0.5],[0,0.25]];outlineConnect=0;gradientColor=none;html=1;whiteSpace=wrap;fontSize=12;fontStyle=0;container=1;pointerEvents=0;collapsible=0;recursiveResize=0;shape=mxgraph.aws4.group;grIcon=mxgraph.aws4.group_security_group;grStroke=0;strokeColor=#00A4A6;fillColor=#E6F6F7;verticalAlign=top;align=left;spacingLeft=30;fontColor=#147EBA;dashed=0;" parent="b5eQ8oIe91yAA5OlFWOd-78" vertex="1">
          <mxGeometry x="230" y="60" width="300" height="170" as="geometry" />
        </mxCell>
        <mxCell id="b5eQ8oIe91yAA5OlFWOd-93" value="&lt;div&gt;Security group: Private&lt;/div&gt;" style="fillColor=none;strokeColor=#DD3522;verticalAlign=top;fontStyle=0;fontColor=#DD3522;whiteSpace=wrap;html=1;" parent="b5eQ8oIe91yAA5OlFWOd-91" vertex="1">
          <mxGeometry x="10" y="40" width="130" height="120" as="geometry" />
        </mxCell>
        <mxCell id="b5eQ8oIe91yAA5OlFWOd-102" value="" style="sketch=0;points=[[0,0,0],[0.25,0,0],[0.5,0,0],[0.75,0,0],[1,0,0],[0,1,0],[0.25,1,0],[0.5,1,0],[0.75,1,0],[1,1,0],[0,0.25,0],[0,0.5,0],[0,0.75,0],[1,0.25,0],[1,0.5,0],[1,0.75,0]];outlineConnect=0;fontColor=#232F3E;fillColor=#ED7100;strokeColor=#ffffff;dashed=0;verticalLabelPosition=bottom;verticalAlign=top;align=center;html=1;fontSize=12;fontStyle=0;aspect=fixed;shape=mxgraph.aws4.resourceIcon;resIcon=mxgraph.aws4.ecs;" parent="b5eQ8oIe91yAA5OlFWOd-91" vertex="1">
          <mxGeometry x="65.53588235294114" y="113.53999999999999" width="38.92733564013841" height="38.92733564013841" as="geometry" />
        </mxCell>
        <mxCell id="b5eQ8oIe91yAA5OlFWOd-103" value="&lt;div&gt;ECS&lt;/div&gt;" style="text;html=1;align=center;verticalAlign=middle;whiteSpace=wrap;rounded=0;" parent="b5eQ8oIe91yAA5OlFWOd-91" vertex="1">
          <mxGeometry x="40.73000000000002" y="76" width="88.54" height="30" as="geometry" />
        </mxCell>
        <mxCell id="b5eQ8oIe91yAA5OlFWOd-114" value="&lt;div&gt;Security group: Private-rds&lt;/div&gt;" style="fillColor=none;strokeColor=#DD3522;verticalAlign=top;fontStyle=0;fontColor=#DD3522;whiteSpace=wrap;html=1;" parent="b5eQ8oIe91yAA5OlFWOd-91" vertex="1">
          <mxGeometry x="150" y="40" width="130" height="120" as="geometry" />
        </mxCell>
        <mxCell id="b5eQ8oIe91yAA5OlFWOd-105" value="RDS" style="text;html=1;align=center;verticalAlign=middle;whiteSpace=wrap;rounded=0;" parent="b5eQ8oIe91yAA5OlFWOd-91" vertex="1">
          <mxGeometry x="154" y="76" width="60" height="30" as="geometry" />
        </mxCell>
        <mxCell id="b5eQ8oIe91yAA5OlFWOd-143" value="(Flask)" style="text;html=1;align=center;verticalAlign=middle;whiteSpace=wrap;rounded=0;" parent="b5eQ8oIe91yAA5OlFWOd-91" vertex="1">
          <mxGeometry x="5.5400000000000205" y="113.53999999999999" width="60" height="30" as="geometry" />
        </mxCell>
        <mxCell id="b5eQ8oIe91yAA5OlFWOd-225" style="edgeStyle=orthogonalEdgeStyle;rounded=0;orthogonalLoop=1;jettySize=auto;html=1;" parent="b5eQ8oIe91yAA5OlFWOd-91" source="b5eQ8oIe91yAA5OlFWOd-144" target="b5eQ8oIe91yAA5OlFWOd-102" edge="1">
          <mxGeometry relative="1" as="geometry" />
        </mxCell>
        <mxCell id="b5eQ8oIe91yAA5OlFWOd-144" value="" style="sketch=0;outlineConnect=0;fontColor=#232F3E;gradientColor=none;fillColor=#C925D1;strokeColor=none;dashed=0;verticalLabelPosition=bottom;verticalAlign=top;align=center;html=1;fontSize=12;fontStyle=0;aspect=fixed;pointerEvents=1;shape=mxgraph.aws4.rds_instance;" parent="b5eQ8oIe91yAA5OlFWOd-91" vertex="1">
          <mxGeometry x="164" y="112.47" width="40" height="40" as="geometry" />
        </mxCell>
        <mxCell id="b5eQ8oIe91yAA5OlFWOd-146" value="(RDS MYSQL) " style="text;html=1;align=center;verticalAlign=middle;whiteSpace=wrap;rounded=0;" parent="b5eQ8oIe91yAA5OlFWOd-91" vertex="1">
          <mxGeometry x="210" y="117.47" width="60" height="30" as="geometry" />
        </mxCell>
        <mxCell id="b5eQ8oIe91yAA5OlFWOd-99" style="edgeStyle=orthogonalEdgeStyle;rounded=0;orthogonalLoop=1;jettySize=auto;html=1;" parent="b5eQ8oIe91yAA5OlFWOd-78" source="b5eQ8oIe91yAA5OlFWOd-94" target="b5eQ8oIe91yAA5OlFWOd-81" edge="1">
          <mxGeometry relative="1" as="geometry" />
        </mxCell>
        <mxCell id="b5eQ8oIe91yAA5OlFWOd-94" value="" style="sketch=0;outlineConnect=0;fontColor=#232F3E;gradientColor=none;fillColor=#8C4FFF;strokeColor=none;dashed=0;verticalLabelPosition=bottom;verticalAlign=top;align=center;html=1;fontSize=12;fontStyle=0;aspect=fixed;pointerEvents=1;shape=mxgraph.aws4.route_table;" parent="b5eQ8oIe91yAA5OlFWOd-78" vertex="1">
          <mxGeometry x="74.54" y="287.05" width="48" height="46.77" as="geometry" />
        </mxCell>
        <mxCell id="b5eQ8oIe91yAA5OlFWOd-95" value="Public Routing" style="text;html=1;align=center;verticalAlign=middle;resizable=0;points=[];autosize=1;strokeColor=none;fillColor=none;" parent="b5eQ8oIe91yAA5OlFWOd-78" vertex="1">
          <mxGeometry x="48.54" y="332.82" width="100" height="30" as="geometry" />
        </mxCell>
        <mxCell id="b5eQ8oIe91yAA5OlFWOd-112" style="edgeStyle=orthogonalEdgeStyle;rounded=0;orthogonalLoop=1;jettySize=auto;html=1;" parent="b5eQ8oIe91yAA5OlFWOd-78" source="b5eQ8oIe91yAA5OlFWOd-107" target="b5eQ8oIe91yAA5OlFWOd-81" edge="1">
          <mxGeometry relative="1" as="geometry" />
        </mxCell>
        <mxCell id="b5eQ8oIe91yAA5OlFWOd-107" value="" style="sketch=0;outlineConnect=0;fontColor=#232F3E;gradientColor=none;fillColor=#8C4FFF;strokeColor=none;dashed=0;verticalLabelPosition=bottom;verticalAlign=top;align=center;html=1;fontSize=12;fontStyle=0;aspect=fixed;pointerEvents=1;shape=mxgraph.aws4.route_table;" parent="b5eQ8oIe91yAA5OlFWOd-78" vertex="1">
          <mxGeometry x="356" y="288" width="48" height="46.77" as="geometry" />
        </mxCell>
        <mxCell id="b5eQ8oIe91yAA5OlFWOd-108" style="edgeStyle=orthogonalEdgeStyle;rounded=0;orthogonalLoop=1;jettySize=auto;html=1;exitX=0.5;exitY=1;exitDx=0;exitDy=0;exitPerimeter=0;" parent="b5eQ8oIe91yAA5OlFWOd-78" source="b5eQ8oIe91yAA5OlFWOd-102" target="b5eQ8oIe91yAA5OlFWOd-107" edge="1">
          <mxGeometry relative="1" as="geometry" />
        </mxCell>
        <mxCell id="b5eQ8oIe91yAA5OlFWOd-111" value="Private Routing" style="text;html=1;align=center;verticalAlign=middle;resizable=0;points=[];autosize=1;strokeColor=none;fillColor=none;" parent="b5eQ8oIe91yAA5OlFWOd-78" vertex="1">
          <mxGeometry x="325" y="332.77" width="110" height="30" as="geometry" />
        </mxCell>
        <mxCell id="1ZduI3p1I3vaccKk_Srs-1" value="Public subnet 10.0.1.0 /24 10.0.2.0 /24" style="points=[[0,0],[0.25,0],[0.5,0],[0.75,0],[1,0],[1,0.25],[1,0.5],[1,0.75],[1,1],[0.75,1],[0.5,1],[0.25,1],[0,1],[0,0.75],[0,0.5],[0,0.25]];outlineConnect=0;gradientColor=none;html=1;whiteSpace=wrap;fontSize=12;fontStyle=0;container=1;pointerEvents=0;collapsible=0;recursiveResize=0;shape=mxgraph.aws4.group;grIcon=mxgraph.aws4.group_security_group;grStroke=0;strokeColor=#7AA116;fillColor=#F2F6E8;verticalAlign=top;align=left;spacingLeft=30;fontColor=#248814;dashed=0;" vertex="1" parent="b5eQ8oIe91yAA5OlFWOd-78">
          <mxGeometry x="20" y="60" width="180" height="170" as="geometry" />
        </mxCell>
        <mxCell id="1ZduI3p1I3vaccKk_Srs-2" value="" style="fillColor=none;strokeColor=#DD3522;verticalAlign=top;fontStyle=0;fontColor=#DD3522;whiteSpace=wrap;html=1;" vertex="1" parent="1ZduI3p1I3vaccKk_Srs-1">
          <mxGeometry x="10" y="40" width="160" height="120" as="geometry" />
        </mxCell>
        <mxCell id="1ZduI3p1I3vaccKk_Srs-3" value="" style="outlineConnect=0;dashed=0;verticalLabelPosition=bottom;verticalAlign=top;align=center;html=1;shape=mxgraph.aws3.classic_load_balancer;fillColor=#F58534;gradientColor=none;" vertex="1" parent="1ZduI3p1I3vaccKk_Srs-1">
          <mxGeometry x="59.25" y="69" width="39.5" height="42" as="geometry" />
        </mxCell>
        <mxCell id="1ZduI3p1I3vaccKk_Srs-4" value="Loadbalancer" style="text;html=1;align=center;verticalAlign=middle;whiteSpace=wrap;rounded=0;rotation=0;" vertex="1" parent="1ZduI3p1I3vaccKk_Srs-1">
          <mxGeometry x="20" y="40" width="60" height="30" as="geometry" />
        </mxCell>
        <mxCell id="1ZduI3p1I3vaccKk_Srs-5" value="Security group: public" style="text;html=1;align=center;verticalAlign=middle;whiteSpace=wrap;rounded=0;fontColor=light-dark(#ff0000, #ededed);" vertex="1" parent="1ZduI3p1I3vaccKk_Srs-1">
          <mxGeometry x="20" y="130" width="140" height="30" as="geometry" />
        </mxCell>
        <mxCell id="1ZduI3p1I3vaccKk_Srs-8" value="&lt;div&gt;NT-GW-ID&lt;/div&gt;" style="text;html=1;align=center;verticalAlign=middle;whiteSpace=wrap;rounded=0;" vertex="1" parent="1ZduI3p1I3vaccKk_Srs-1">
          <mxGeometry x="110" y="39" width="60" height="30" as="geometry" />
        </mxCell>
        <mxCell id="1ZduI3p1I3vaccKk_Srs-9" style="edgeStyle=orthogonalEdgeStyle;rounded=0;orthogonalLoop=1;jettySize=auto;html=1;exitX=0.5;exitY=1;exitDx=0;exitDy=0;exitPerimeter=0;" edge="1" parent="b5eQ8oIe91yAA5OlFWOd-78" source="1ZduI3p1I3vaccKk_Srs-3" target="b5eQ8oIe91yAA5OlFWOd-94">
          <mxGeometry relative="1" as="geometry" />
        </mxCell>
        <mxCell id="1ZduI3p1I3vaccKk_Srs-10" style="edgeStyle=orthogonalEdgeStyle;rounded=0;orthogonalLoop=1;jettySize=auto;html=1;" edge="1" parent="b5eQ8oIe91yAA5OlFWOd-78" source="1ZduI3p1I3vaccKk_Srs-6" target="b5eQ8oIe91yAA5OlFWOd-107">
          <mxGeometry relative="1" as="geometry" />
        </mxCell>
        <mxCell id="1ZduI3p1I3vaccKk_Srs-11" style="edgeStyle=orthogonalEdgeStyle;rounded=0;orthogonalLoop=1;jettySize=auto;html=1;" edge="1" parent="b5eQ8oIe91yAA5OlFWOd-78" source="1ZduI3p1I3vaccKk_Srs-6" target="b5eQ8oIe91yAA5OlFWOd-94">
          <mxGeometry relative="1" as="geometry" />
        </mxCell>
        <mxCell id="1ZduI3p1I3vaccKk_Srs-6" value="" style="sketch=0;outlineConnect=0;fontColor=#232F3E;gradientColor=none;fillColor=#8C4FFF;strokeColor=none;dashed=0;verticalLabelPosition=bottom;verticalAlign=top;align=center;html=1;fontSize=12;fontStyle=0;aspect=fixed;pointerEvents=1;shape=mxgraph.aws4.nat_gateway;" vertex="1" parent="b5eQ8oIe91yAA5OlFWOd-78">
          <mxGeometry x="282" y="260" width="43" height="43" as="geometry" />
        </mxCell>
        <mxCell id="AVe9h3uzQn_SfULNAVAQ-1" value="" style="outlineConnect=0;dashed=0;verticalLabelPosition=bottom;verticalAlign=top;align=center;html=1;shape=mxgraph.aws3.ecr;fillColor=#F58534;gradientColor=none;" parent="b5eQ8oIe91yAA5OlFWOd-77" vertex="1">
          <mxGeometry x="640" y="70" width="69" height="72" as="geometry" />
        </mxCell>
        <mxCell id="AVe9h3uzQn_SfULNAVAQ-3" style="edgeStyle=orthogonalEdgeStyle;rounded=0;orthogonalLoop=1;jettySize=auto;html=1;" parent="b5eQ8oIe91yAA5OlFWOd-77" source="b5eQ8oIe91yAA5OlFWOd-81" target="AVe9h3uzQn_SfULNAVAQ-1" edge="1">
          <mxGeometry relative="1" as="geometry">
            <Array as="points">
              <mxPoint x="250" y="420" />
              <mxPoint x="675" y="420" />
            </Array>
          </mxGeometry>
        </mxCell>
        <mxCell id="AVe9h3uzQn_SfULNAVAQ-4" value="ECR" style="text;html=1;align=center;verticalAlign=middle;whiteSpace=wrap;rounded=0;" parent="b5eQ8oIe91yAA5OlFWOd-77" vertex="1">
          <mxGeometry x="640" y="40" width="60" height="30" as="geometry" />
        </mxCell>
        <mxCell id="b5eQ8oIe91yAA5OlFWOd-116" value="" style="shape=table;startSize=0;container=1;collapsible=0;childLayout=tableLayout;fontSize=16;" parent="1" vertex="1">
          <mxGeometry x="40" y="550" width="220" height="160" as="geometry" />
        </mxCell>
        <mxCell id="b5eQ8oIe91yAA5OlFWOd-117" value="" style="shape=tableRow;horizontal=0;startSize=0;swimlaneHead=0;swimlaneBody=0;strokeColor=inherit;top=0;left=0;bottom=0;right=0;collapsible=0;dropTarget=0;fillColor=none;points=[[0,0.5],[1,0.5]];portConstraint=eastwest;fontSize=16;" parent="b5eQ8oIe91yAA5OlFWOd-116" vertex="1">
          <mxGeometry width="220" height="40" as="geometry" />
        </mxCell>
        <mxCell id="b5eQ8oIe91yAA5OlFWOd-118" value="Public Route table" style="shape=partialRectangle;html=1;whiteSpace=wrap;connectable=0;strokeColor=inherit;overflow=hidden;fillColor=none;top=0;left=0;bottom=0;right=0;pointerEvents=1;fontSize=16;" parent="b5eQ8oIe91yAA5OlFWOd-117" vertex="1">
          <mxGeometry width="110" height="40" as="geometry">
            <mxRectangle width="110" height="40" as="alternateBounds" />
          </mxGeometry>
        </mxCell>
        <mxCell id="b5eQ8oIe91yAA5OlFWOd-119" value="" style="shape=partialRectangle;html=1;whiteSpace=wrap;connectable=0;strokeColor=inherit;overflow=hidden;fillColor=none;top=0;left=0;bottom=0;right=0;pointerEvents=1;fontSize=16;" parent="b5eQ8oIe91yAA5OlFWOd-117" vertex="1">
          <mxGeometry x="110" width="110" height="40" as="geometry">
            <mxRectangle width="110" height="40" as="alternateBounds" />
          </mxGeometry>
        </mxCell>
        <mxCell id="b5eQ8oIe91yAA5OlFWOd-120" value="" style="shape=tableRow;horizontal=0;startSize=0;swimlaneHead=0;swimlaneBody=0;strokeColor=inherit;top=0;left=0;bottom=0;right=0;collapsible=0;dropTarget=0;fillColor=none;points=[[0,0.5],[1,0.5]];portConstraint=eastwest;fontSize=16;" parent="b5eQ8oIe91yAA5OlFWOd-116" vertex="1">
          <mxGeometry y="40" width="220" height="40" as="geometry" />
        </mxCell>
        <mxCell id="b5eQ8oIe91yAA5OlFWOd-121" value="Destination" style="shape=partialRectangle;html=1;whiteSpace=wrap;connectable=0;strokeColor=inherit;overflow=hidden;fillColor=none;top=0;left=0;bottom=0;right=0;pointerEvents=1;fontSize=16;" parent="b5eQ8oIe91yAA5OlFWOd-120" vertex="1">
          <mxGeometry width="110" height="40" as="geometry">
            <mxRectangle width="110" height="40" as="alternateBounds" />
          </mxGeometry>
        </mxCell>
        <mxCell id="b5eQ8oIe91yAA5OlFWOd-122" value="Target" style="shape=partialRectangle;html=1;whiteSpace=wrap;connectable=0;strokeColor=inherit;overflow=hidden;fillColor=none;top=0;left=0;bottom=0;right=0;pointerEvents=1;fontSize=16;" parent="b5eQ8oIe91yAA5OlFWOd-120" vertex="1">
          <mxGeometry x="110" width="110" height="40" as="geometry">
            <mxRectangle width="110" height="40" as="alternateBounds" />
          </mxGeometry>
        </mxCell>
        <mxCell id="b5eQ8oIe91yAA5OlFWOd-123" value="" style="shape=tableRow;horizontal=0;startSize=0;swimlaneHead=0;swimlaneBody=0;strokeColor=inherit;top=0;left=0;bottom=0;right=0;collapsible=0;dropTarget=0;fillColor=none;points=[[0,0.5],[1,0.5]];portConstraint=eastwest;fontSize=16;" parent="b5eQ8oIe91yAA5OlFWOd-116" vertex="1">
          <mxGeometry y="80" width="220" height="40" as="geometry" />
        </mxCell>
        <mxCell id="b5eQ8oIe91yAA5OlFWOd-124" value="&lt;div align=&quot;center&quot;&gt;10.0.0.0 /16&lt;/div&gt;" style="shape=partialRectangle;html=1;whiteSpace=wrap;connectable=0;strokeColor=inherit;overflow=hidden;fillColor=none;top=0;left=0;bottom=0;right=0;pointerEvents=1;fontSize=16;align=center;" parent="b5eQ8oIe91yAA5OlFWOd-123" vertex="1">
          <mxGeometry width="110" height="40" as="geometry">
            <mxRectangle width="110" height="40" as="alternateBounds" />
          </mxGeometry>
        </mxCell>
        <mxCell id="b5eQ8oIe91yAA5OlFWOd-125" value="Local" style="shape=partialRectangle;html=1;whiteSpace=wrap;connectable=0;strokeColor=inherit;overflow=hidden;fillColor=none;top=0;left=0;bottom=0;right=0;pointerEvents=1;fontSize=16;" parent="b5eQ8oIe91yAA5OlFWOd-123" vertex="1">
          <mxGeometry x="110" width="110" height="40" as="geometry">
            <mxRectangle width="110" height="40" as="alternateBounds" />
          </mxGeometry>
        </mxCell>
        <mxCell id="b5eQ8oIe91yAA5OlFWOd-126" style="shape=tableRow;horizontal=0;startSize=0;swimlaneHead=0;swimlaneBody=0;strokeColor=inherit;top=0;left=0;bottom=0;right=0;collapsible=0;dropTarget=0;fillColor=none;points=[[0,0.5],[1,0.5]];portConstraint=eastwest;fontSize=16;" parent="b5eQ8oIe91yAA5OlFWOd-116" vertex="1">
          <mxGeometry y="120" width="220" height="40" as="geometry" />
        </mxCell>
        <mxCell id="b5eQ8oIe91yAA5OlFWOd-127" value="0.0.0.0 /0" style="shape=partialRectangle;html=1;whiteSpace=wrap;connectable=0;strokeColor=inherit;overflow=hidden;fillColor=none;top=0;left=0;bottom=0;right=0;pointerEvents=1;fontSize=16;align=center;" parent="b5eQ8oIe91yAA5OlFWOd-126" vertex="1">
          <mxGeometry width="110" height="40" as="geometry">
            <mxRectangle width="110" height="40" as="alternateBounds" />
          </mxGeometry>
        </mxCell>
        <mxCell id="b5eQ8oIe91yAA5OlFWOd-128" value="IGW-ID" style="shape=partialRectangle;html=1;whiteSpace=wrap;connectable=0;strokeColor=inherit;overflow=hidden;fillColor=none;top=0;left=0;bottom=0;right=0;pointerEvents=1;fontSize=16;" parent="b5eQ8oIe91yAA5OlFWOd-126" vertex="1">
          <mxGeometry x="110" width="110" height="40" as="geometry">
            <mxRectangle width="110" height="40" as="alternateBounds" />
          </mxGeometry>
        </mxCell>
        <mxCell id="b5eQ8oIe91yAA5OlFWOd-129" value="" style="shape=table;startSize=0;container=1;collapsible=0;childLayout=tableLayout;fontSize=16;" parent="1" vertex="1">
          <mxGeometry x="360" y="550" width="220" height="160" as="geometry" />
        </mxCell>
        <mxCell id="b5eQ8oIe91yAA5OlFWOd-130" value="" style="shape=tableRow;horizontal=0;startSize=0;swimlaneHead=0;swimlaneBody=0;strokeColor=inherit;top=0;left=0;bottom=0;right=0;collapsible=0;dropTarget=0;fillColor=none;points=[[0,0.5],[1,0.5]];portConstraint=eastwest;fontSize=16;" parent="b5eQ8oIe91yAA5OlFWOd-129" vertex="1">
          <mxGeometry width="220" height="40" as="geometry" />
        </mxCell>
        <mxCell id="b5eQ8oIe91yAA5OlFWOd-131" value="Private Route table" style="shape=partialRectangle;html=1;whiteSpace=wrap;connectable=0;strokeColor=inherit;overflow=hidden;fillColor=none;top=0;left=0;bottom=0;right=0;pointerEvents=1;fontSize=16;" parent="b5eQ8oIe91yAA5OlFWOd-130" vertex="1">
          <mxGeometry width="110" height="40" as="geometry">
            <mxRectangle width="110" height="40" as="alternateBounds" />
          </mxGeometry>
        </mxCell>
        <mxCell id="b5eQ8oIe91yAA5OlFWOd-132" value="" style="shape=partialRectangle;html=1;whiteSpace=wrap;connectable=0;strokeColor=inherit;overflow=hidden;fillColor=none;top=0;left=0;bottom=0;right=0;pointerEvents=1;fontSize=16;" parent="b5eQ8oIe91yAA5OlFWOd-130" vertex="1">
          <mxGeometry x="110" width="110" height="40" as="geometry">
            <mxRectangle width="110" height="40" as="alternateBounds" />
          </mxGeometry>
        </mxCell>
        <mxCell id="b5eQ8oIe91yAA5OlFWOd-133" value="" style="shape=tableRow;horizontal=0;startSize=0;swimlaneHead=0;swimlaneBody=0;strokeColor=inherit;top=0;left=0;bottom=0;right=0;collapsible=0;dropTarget=0;fillColor=none;points=[[0,0.5],[1,0.5]];portConstraint=eastwest;fontSize=16;" parent="b5eQ8oIe91yAA5OlFWOd-129" vertex="1">
          <mxGeometry y="40" width="220" height="40" as="geometry" />
        </mxCell>
        <mxCell id="b5eQ8oIe91yAA5OlFWOd-134" value="Destination" style="shape=partialRectangle;html=1;whiteSpace=wrap;connectable=0;strokeColor=inherit;overflow=hidden;fillColor=none;top=0;left=0;bottom=0;right=0;pointerEvents=1;fontSize=16;" parent="b5eQ8oIe91yAA5OlFWOd-133" vertex="1">
          <mxGeometry width="110" height="40" as="geometry">
            <mxRectangle width="110" height="40" as="alternateBounds" />
          </mxGeometry>
        </mxCell>
        <mxCell id="b5eQ8oIe91yAA5OlFWOd-135" value="Target" style="shape=partialRectangle;html=1;whiteSpace=wrap;connectable=0;strokeColor=inherit;overflow=hidden;fillColor=none;top=0;left=0;bottom=0;right=0;pointerEvents=1;fontSize=16;" parent="b5eQ8oIe91yAA5OlFWOd-133" vertex="1">
          <mxGeometry x="110" width="110" height="40" as="geometry">
            <mxRectangle width="110" height="40" as="alternateBounds" />
          </mxGeometry>
        </mxCell>
        <mxCell id="b5eQ8oIe91yAA5OlFWOd-136" value="" style="shape=tableRow;horizontal=0;startSize=0;swimlaneHead=0;swimlaneBody=0;strokeColor=inherit;top=0;left=0;bottom=0;right=0;collapsible=0;dropTarget=0;fillColor=none;points=[[0,0.5],[1,0.5]];portConstraint=eastwest;fontSize=16;" parent="b5eQ8oIe91yAA5OlFWOd-129" vertex="1">
          <mxGeometry y="80" width="220" height="40" as="geometry" />
        </mxCell>
        <mxCell id="b5eQ8oIe91yAA5OlFWOd-137" value="&lt;div align=&quot;center&quot;&gt;10.0.0.0 /16&lt;/div&gt;" style="shape=partialRectangle;html=1;whiteSpace=wrap;connectable=0;strokeColor=inherit;overflow=hidden;fillColor=none;top=0;left=0;bottom=0;right=0;pointerEvents=1;fontSize=16;align=center;" parent="b5eQ8oIe91yAA5OlFWOd-136" vertex="1">
          <mxGeometry width="110" height="40" as="geometry">
            <mxRectangle width="110" height="40" as="alternateBounds" />
          </mxGeometry>
        </mxCell>
        <mxCell id="b5eQ8oIe91yAA5OlFWOd-138" value="Local" style="shape=partialRectangle;html=1;whiteSpace=wrap;connectable=0;strokeColor=inherit;overflow=hidden;fillColor=none;top=0;left=0;bottom=0;right=0;pointerEvents=1;fontSize=16;" parent="b5eQ8oIe91yAA5OlFWOd-136" vertex="1">
          <mxGeometry x="110" width="110" height="40" as="geometry">
            <mxRectangle width="110" height="40" as="alternateBounds" />
          </mxGeometry>
        </mxCell>
        <mxCell id="b5eQ8oIe91yAA5OlFWOd-139" style="shape=tableRow;horizontal=0;startSize=0;swimlaneHead=0;swimlaneBody=0;strokeColor=inherit;top=0;left=0;bottom=0;right=0;collapsible=0;dropTarget=0;fillColor=none;points=[[0,0.5],[1,0.5]];portConstraint=eastwest;fontSize=16;" parent="b5eQ8oIe91yAA5OlFWOd-129" vertex="1">
          <mxGeometry y="120" width="220" height="40" as="geometry" />
        </mxCell>
        <mxCell id="b5eQ8oIe91yAA5OlFWOd-140" value="0.0.0.0 /0" style="shape=partialRectangle;html=1;whiteSpace=wrap;connectable=0;strokeColor=inherit;overflow=hidden;fillColor=none;top=0;left=0;bottom=0;right=0;pointerEvents=1;fontSize=16;align=center;" parent="b5eQ8oIe91yAA5OlFWOd-139" vertex="1">
          <mxGeometry width="110" height="40" as="geometry">
            <mxRectangle width="110" height="40" as="alternateBounds" />
          </mxGeometry>
        </mxCell>
        <mxCell id="b5eQ8oIe91yAA5OlFWOd-141" value="Nginx" style="shape=partialRectangle;html=1;whiteSpace=wrap;connectable=0;strokeColor=inherit;overflow=hidden;fillColor=none;top=0;left=0;bottom=0;right=0;pointerEvents=1;fontSize=16;" parent="b5eQ8oIe91yAA5OlFWOd-139" vertex="1">
          <mxGeometry x="110" width="110" height="40" as="geometry">
            <mxRectangle width="110" height="40" as="alternateBounds" />
          </mxGeometry>
        </mxCell>
        <mxCell id="b5eQ8oIe91yAA5OlFWOd-147" value="" style="shape=table;startSize=0;container=1;collapsible=0;childLayout=tableLayout;fontSize=16;" parent="1" vertex="1">
          <mxGeometry x="40" y="720" width="329" height="160" as="geometry" />
        </mxCell>
        <mxCell id="b5eQ8oIe91yAA5OlFWOd-148" value="" style="shape=tableRow;horizontal=0;startSize=0;swimlaneHead=0;swimlaneBody=0;strokeColor=inherit;top=0;left=0;bottom=0;right=0;collapsible=0;dropTarget=0;fillColor=none;points=[[0,0.5],[1,0.5]];portConstraint=eastwest;fontSize=16;" parent="b5eQ8oIe91yAA5OlFWOd-147" vertex="1">
          <mxGeometry width="329" height="53" as="geometry" />
        </mxCell>
        <mxCell id="b5eQ8oIe91yAA5OlFWOd-149" value="Public" style="shape=partialRectangle;html=1;whiteSpace=wrap;connectable=0;strokeColor=inherit;overflow=hidden;fillColor=none;top=0;left=0;bottom=0;right=0;pointerEvents=1;fontSize=16;" parent="b5eQ8oIe91yAA5OlFWOd-148" vertex="1">
          <mxGeometry width="111" height="53" as="geometry">
            <mxRectangle width="111" height="53" as="alternateBounds" />
          </mxGeometry>
        </mxCell>
        <mxCell id="b5eQ8oIe91yAA5OlFWOd-150" value="INBOUND" style="shape=partialRectangle;html=1;whiteSpace=wrap;connectable=0;strokeColor=inherit;overflow=hidden;fillColor=none;top=0;left=0;bottom=0;right=0;pointerEvents=1;fontSize=16;" parent="b5eQ8oIe91yAA5OlFWOd-148" vertex="1">
          <mxGeometry x="111" width="109" height="53" as="geometry">
            <mxRectangle width="109" height="53" as="alternateBounds" />
          </mxGeometry>
        </mxCell>
        <mxCell id="b5eQ8oIe91yAA5OlFWOd-151" style="shape=partialRectangle;html=1;whiteSpace=wrap;connectable=0;strokeColor=inherit;overflow=hidden;fillColor=none;top=0;left=0;bottom=0;right=0;pointerEvents=1;fontSize=16;" parent="b5eQ8oIe91yAA5OlFWOd-148" vertex="1">
          <mxGeometry x="220" width="109" height="53" as="geometry">
            <mxRectangle width="109" height="53" as="alternateBounds" />
          </mxGeometry>
        </mxCell>
        <mxCell id="b5eQ8oIe91yAA5OlFWOd-152" value="" style="shape=tableRow;horizontal=0;startSize=0;swimlaneHead=0;swimlaneBody=0;strokeColor=inherit;top=0;left=0;bottom=0;right=0;collapsible=0;dropTarget=0;fillColor=none;points=[[0,0.5],[1,0.5]];portConstraint=eastwest;fontSize=16;" parent="b5eQ8oIe91yAA5OlFWOd-147" vertex="1">
          <mxGeometry y="53" width="329" height="54" as="geometry" />
        </mxCell>
        <mxCell id="b5eQ8oIe91yAA5OlFWOd-153" value="Source" style="shape=partialRectangle;html=1;whiteSpace=wrap;connectable=0;strokeColor=inherit;overflow=hidden;fillColor=none;top=0;left=0;bottom=0;right=0;pointerEvents=1;fontSize=16;" parent="b5eQ8oIe91yAA5OlFWOd-152" vertex="1">
          <mxGeometry width="111" height="54" as="geometry">
            <mxRectangle width="111" height="54" as="alternateBounds" />
          </mxGeometry>
        </mxCell>
        <mxCell id="b5eQ8oIe91yAA5OlFWOd-154" value="Protocol" style="shape=partialRectangle;html=1;whiteSpace=wrap;connectable=0;strokeColor=inherit;overflow=hidden;fillColor=none;top=0;left=0;bottom=0;right=0;pointerEvents=1;fontSize=16;" parent="b5eQ8oIe91yAA5OlFWOd-152" vertex="1">
          <mxGeometry x="111" width="109" height="54" as="geometry">
            <mxRectangle width="109" height="54" as="alternateBounds" />
          </mxGeometry>
        </mxCell>
        <mxCell id="b5eQ8oIe91yAA5OlFWOd-155" value="Port range" style="shape=partialRectangle;html=1;whiteSpace=wrap;connectable=0;strokeColor=inherit;overflow=hidden;fillColor=none;top=0;left=0;bottom=0;right=0;pointerEvents=1;fontSize=16;" parent="b5eQ8oIe91yAA5OlFWOd-152" vertex="1">
          <mxGeometry x="220" width="109" height="54" as="geometry">
            <mxRectangle width="109" height="54" as="alternateBounds" />
          </mxGeometry>
        </mxCell>
        <mxCell id="b5eQ8oIe91yAA5OlFWOd-156" value="" style="shape=tableRow;horizontal=0;startSize=0;swimlaneHead=0;swimlaneBody=0;strokeColor=inherit;top=0;left=0;bottom=0;right=0;collapsible=0;dropTarget=0;fillColor=none;points=[[0,0.5],[1,0.5]];portConstraint=eastwest;fontSize=16;" parent="b5eQ8oIe91yAA5OlFWOd-147" vertex="1">
          <mxGeometry y="107" width="329" height="53" as="geometry" />
        </mxCell>
        <mxCell id="b5eQ8oIe91yAA5OlFWOd-157" value="0.0.0.0 /0" style="shape=partialRectangle;html=1;whiteSpace=wrap;connectable=0;strokeColor=inherit;overflow=hidden;fillColor=none;top=0;left=0;bottom=0;right=0;pointerEvents=1;fontSize=16;" parent="b5eQ8oIe91yAA5OlFWOd-156" vertex="1">
          <mxGeometry width="111" height="53" as="geometry">
            <mxRectangle width="111" height="53" as="alternateBounds" />
          </mxGeometry>
        </mxCell>
        <mxCell id="b5eQ8oIe91yAA5OlFWOd-158" value="TCP" style="shape=partialRectangle;html=1;whiteSpace=wrap;connectable=0;strokeColor=inherit;overflow=hidden;fillColor=none;top=0;left=0;bottom=0;right=0;pointerEvents=1;fontSize=16;" parent="b5eQ8oIe91yAA5OlFWOd-156" vertex="1">
          <mxGeometry x="111" width="109" height="53" as="geometry">
            <mxRectangle width="109" height="53" as="alternateBounds" />
          </mxGeometry>
        </mxCell>
        <mxCell id="b5eQ8oIe91yAA5OlFWOd-159" value="80" style="shape=partialRectangle;html=1;whiteSpace=wrap;connectable=0;strokeColor=inherit;overflow=hidden;fillColor=none;top=0;left=0;bottom=0;right=0;pointerEvents=1;fontSize=16;" parent="b5eQ8oIe91yAA5OlFWOd-156" vertex="1">
          <mxGeometry x="220" width="109" height="53" as="geometry">
            <mxRectangle width="109" height="53" as="alternateBounds" />
          </mxGeometry>
        </mxCell>
        <mxCell id="b5eQ8oIe91yAA5OlFWOd-160" value="" style="shape=table;startSize=0;container=1;collapsible=0;childLayout=tableLayout;fontSize=16;" parent="1" vertex="1">
          <mxGeometry x="400" y="720" width="329" height="160" as="geometry" />
        </mxCell>
        <mxCell id="b5eQ8oIe91yAA5OlFWOd-161" value="" style="shape=tableRow;horizontal=0;startSize=0;swimlaneHead=0;swimlaneBody=0;strokeColor=inherit;top=0;left=0;bottom=0;right=0;collapsible=0;dropTarget=0;fillColor=none;points=[[0,0.5],[1,0.5]];portConstraint=eastwest;fontSize=16;" parent="b5eQ8oIe91yAA5OlFWOd-160" vertex="1">
          <mxGeometry width="329" height="53" as="geometry" />
        </mxCell>
        <mxCell id="b5eQ8oIe91yAA5OlFWOd-162" value="Public" style="shape=partialRectangle;html=1;whiteSpace=wrap;connectable=0;strokeColor=inherit;overflow=hidden;fillColor=none;top=0;left=0;bottom=0;right=0;pointerEvents=1;fontSize=16;" parent="b5eQ8oIe91yAA5OlFWOd-161" vertex="1">
          <mxGeometry width="111" height="53" as="geometry">
            <mxRectangle width="111" height="53" as="alternateBounds" />
          </mxGeometry>
        </mxCell>
        <mxCell id="b5eQ8oIe91yAA5OlFWOd-163" value="OUTBOUND" style="shape=partialRectangle;html=1;whiteSpace=wrap;connectable=0;strokeColor=inherit;overflow=hidden;fillColor=none;top=0;left=0;bottom=0;right=0;pointerEvents=1;fontSize=16;" parent="b5eQ8oIe91yAA5OlFWOd-161" vertex="1">
          <mxGeometry x="111" width="109" height="53" as="geometry">
            <mxRectangle width="109" height="53" as="alternateBounds" />
          </mxGeometry>
        </mxCell>
        <mxCell id="b5eQ8oIe91yAA5OlFWOd-164" style="shape=partialRectangle;html=1;whiteSpace=wrap;connectable=0;strokeColor=inherit;overflow=hidden;fillColor=none;top=0;left=0;bottom=0;right=0;pointerEvents=1;fontSize=16;" parent="b5eQ8oIe91yAA5OlFWOd-161" vertex="1">
          <mxGeometry x="220" width="109" height="53" as="geometry">
            <mxRectangle width="109" height="53" as="alternateBounds" />
          </mxGeometry>
        </mxCell>
        <mxCell id="b5eQ8oIe91yAA5OlFWOd-165" value="" style="shape=tableRow;horizontal=0;startSize=0;swimlaneHead=0;swimlaneBody=0;strokeColor=inherit;top=0;left=0;bottom=0;right=0;collapsible=0;dropTarget=0;fillColor=none;points=[[0,0.5],[1,0.5]];portConstraint=eastwest;fontSize=16;" parent="b5eQ8oIe91yAA5OlFWOd-160" vertex="1">
          <mxGeometry y="53" width="329" height="54" as="geometry" />
        </mxCell>
        <mxCell id="b5eQ8oIe91yAA5OlFWOd-166" value="Source" style="shape=partialRectangle;html=1;whiteSpace=wrap;connectable=0;strokeColor=inherit;overflow=hidden;fillColor=none;top=0;left=0;bottom=0;right=0;pointerEvents=1;fontSize=16;" parent="b5eQ8oIe91yAA5OlFWOd-165" vertex="1">
          <mxGeometry width="111" height="54" as="geometry">
            <mxRectangle width="111" height="54" as="alternateBounds" />
          </mxGeometry>
        </mxCell>
        <mxCell id="b5eQ8oIe91yAA5OlFWOd-167" value="Protocol" style="shape=partialRectangle;html=1;whiteSpace=wrap;connectable=0;strokeColor=inherit;overflow=hidden;fillColor=none;top=0;left=0;bottom=0;right=0;pointerEvents=1;fontSize=16;" parent="b5eQ8oIe91yAA5OlFWOd-165" vertex="1">
          <mxGeometry x="111" width="109" height="54" as="geometry">
            <mxRectangle width="109" height="54" as="alternateBounds" />
          </mxGeometry>
        </mxCell>
        <mxCell id="b5eQ8oIe91yAA5OlFWOd-168" value="Port range" style="shape=partialRectangle;html=1;whiteSpace=wrap;connectable=0;strokeColor=inherit;overflow=hidden;fillColor=none;top=0;left=0;bottom=0;right=0;pointerEvents=1;fontSize=16;" parent="b5eQ8oIe91yAA5OlFWOd-165" vertex="1">
          <mxGeometry x="220" width="109" height="54" as="geometry">
            <mxRectangle width="109" height="54" as="alternateBounds" />
          </mxGeometry>
        </mxCell>
        <mxCell id="b5eQ8oIe91yAA5OlFWOd-169" value="" style="shape=tableRow;horizontal=0;startSize=0;swimlaneHead=0;swimlaneBody=0;strokeColor=inherit;top=0;left=0;bottom=0;right=0;collapsible=0;dropTarget=0;fillColor=none;points=[[0,0.5],[1,0.5]];portConstraint=eastwest;fontSize=16;" parent="b5eQ8oIe91yAA5OlFWOd-160" vertex="1">
          <mxGeometry y="107" width="329" height="53" as="geometry" />
        </mxCell>
        <mxCell id="b5eQ8oIe91yAA5OlFWOd-170" value="0.0.0.0 /0" style="shape=partialRectangle;html=1;whiteSpace=wrap;connectable=0;strokeColor=inherit;overflow=hidden;fillColor=none;top=0;left=0;bottom=0;right=0;pointerEvents=1;fontSize=16;" parent="b5eQ8oIe91yAA5OlFWOd-169" vertex="1">
          <mxGeometry width="111" height="53" as="geometry">
            <mxRectangle width="111" height="53" as="alternateBounds" />
          </mxGeometry>
        </mxCell>
        <mxCell id="b5eQ8oIe91yAA5OlFWOd-171" value="Al" style="shape=partialRectangle;html=1;whiteSpace=wrap;connectable=0;strokeColor=inherit;overflow=hidden;fillColor=none;top=0;left=0;bottom=0;right=0;pointerEvents=1;fontSize=16;" parent="b5eQ8oIe91yAA5OlFWOd-169" vertex="1">
          <mxGeometry x="111" width="109" height="53" as="geometry">
            <mxRectangle width="109" height="53" as="alternateBounds" />
          </mxGeometry>
        </mxCell>
        <mxCell id="b5eQ8oIe91yAA5OlFWOd-172" value="All" style="shape=partialRectangle;html=1;whiteSpace=wrap;connectable=0;strokeColor=inherit;overflow=hidden;fillColor=none;top=0;left=0;bottom=0;right=0;pointerEvents=1;fontSize=16;" parent="b5eQ8oIe91yAA5OlFWOd-169" vertex="1">
          <mxGeometry x="220" width="109" height="53" as="geometry">
            <mxRectangle width="109" height="53" as="alternateBounds" />
          </mxGeometry>
        </mxCell>
        <mxCell id="b5eQ8oIe91yAA5OlFWOd-173" value="" style="shape=table;startSize=0;container=1;collapsible=0;childLayout=tableLayout;fontSize=16;" parent="1" vertex="1">
          <mxGeometry x="40" y="890" width="329" height="160" as="geometry" />
        </mxCell>
        <mxCell id="b5eQ8oIe91yAA5OlFWOd-174" value="" style="shape=tableRow;horizontal=0;startSize=0;swimlaneHead=0;swimlaneBody=0;strokeColor=inherit;top=0;left=0;bottom=0;right=0;collapsible=0;dropTarget=0;fillColor=none;points=[[0,0.5],[1,0.5]];portConstraint=eastwest;fontSize=16;" parent="b5eQ8oIe91yAA5OlFWOd-173" vertex="1">
          <mxGeometry width="329" height="53" as="geometry" />
        </mxCell>
        <mxCell id="b5eQ8oIe91yAA5OlFWOd-175" value="&lt;div&gt;&amp;nbsp;Private&lt;/div&gt;" style="shape=partialRectangle;html=1;whiteSpace=wrap;connectable=0;strokeColor=inherit;overflow=hidden;fillColor=none;top=0;left=0;bottom=0;right=0;pointerEvents=1;fontSize=16;" parent="b5eQ8oIe91yAA5OlFWOd-174" vertex="1">
          <mxGeometry width="111" height="53" as="geometry">
            <mxRectangle width="111" height="53" as="alternateBounds" />
          </mxGeometry>
        </mxCell>
        <mxCell id="b5eQ8oIe91yAA5OlFWOd-176" value="INBOUND" style="shape=partialRectangle;html=1;whiteSpace=wrap;connectable=0;strokeColor=inherit;overflow=hidden;fillColor=none;top=0;left=0;bottom=0;right=0;pointerEvents=1;fontSize=16;" parent="b5eQ8oIe91yAA5OlFWOd-174" vertex="1">
          <mxGeometry x="111" width="109" height="53" as="geometry">
            <mxRectangle width="109" height="53" as="alternateBounds" />
          </mxGeometry>
        </mxCell>
        <mxCell id="b5eQ8oIe91yAA5OlFWOd-177" style="shape=partialRectangle;html=1;whiteSpace=wrap;connectable=0;strokeColor=inherit;overflow=hidden;fillColor=none;top=0;left=0;bottom=0;right=0;pointerEvents=1;fontSize=16;" parent="b5eQ8oIe91yAA5OlFWOd-174" vertex="1">
          <mxGeometry x="220" width="109" height="53" as="geometry">
            <mxRectangle width="109" height="53" as="alternateBounds" />
          </mxGeometry>
        </mxCell>
        <mxCell id="b5eQ8oIe91yAA5OlFWOd-178" value="" style="shape=tableRow;horizontal=0;startSize=0;swimlaneHead=0;swimlaneBody=0;strokeColor=inherit;top=0;left=0;bottom=0;right=0;collapsible=0;dropTarget=0;fillColor=none;points=[[0,0.5],[1,0.5]];portConstraint=eastwest;fontSize=16;" parent="b5eQ8oIe91yAA5OlFWOd-173" vertex="1">
          <mxGeometry y="53" width="329" height="54" as="geometry" />
        </mxCell>
        <mxCell id="b5eQ8oIe91yAA5OlFWOd-179" value="Source" style="shape=partialRectangle;html=1;whiteSpace=wrap;connectable=0;strokeColor=inherit;overflow=hidden;fillColor=none;top=0;left=0;bottom=0;right=0;pointerEvents=1;fontSize=16;" parent="b5eQ8oIe91yAA5OlFWOd-178" vertex="1">
          <mxGeometry width="111" height="54" as="geometry">
            <mxRectangle width="111" height="54" as="alternateBounds" />
          </mxGeometry>
        </mxCell>
        <mxCell id="b5eQ8oIe91yAA5OlFWOd-180" value="Protocol" style="shape=partialRectangle;html=1;whiteSpace=wrap;connectable=0;strokeColor=inherit;overflow=hidden;fillColor=none;top=0;left=0;bottom=0;right=0;pointerEvents=1;fontSize=16;" parent="b5eQ8oIe91yAA5OlFWOd-178" vertex="1">
          <mxGeometry x="111" width="109" height="54" as="geometry">
            <mxRectangle width="109" height="54" as="alternateBounds" />
          </mxGeometry>
        </mxCell>
        <mxCell id="b5eQ8oIe91yAA5OlFWOd-181" value="Port range" style="shape=partialRectangle;html=1;whiteSpace=wrap;connectable=0;strokeColor=inherit;overflow=hidden;fillColor=none;top=0;left=0;bottom=0;right=0;pointerEvents=1;fontSize=16;" parent="b5eQ8oIe91yAA5OlFWOd-178" vertex="1">
          <mxGeometry x="220" width="109" height="54" as="geometry">
            <mxRectangle width="109" height="54" as="alternateBounds" />
          </mxGeometry>
        </mxCell>
        <mxCell id="b5eQ8oIe91yAA5OlFWOd-182" value="" style="shape=tableRow;horizontal=0;startSize=0;swimlaneHead=0;swimlaneBody=0;strokeColor=inherit;top=0;left=0;bottom=0;right=0;collapsible=0;dropTarget=0;fillColor=none;points=[[0,0.5],[1,0.5]];portConstraint=eastwest;fontSize=16;" parent="b5eQ8oIe91yAA5OlFWOd-173" vertex="1">
          <mxGeometry y="107" width="329" height="53" as="geometry" />
        </mxCell>
        <mxCell id="b5eQ8oIe91yAA5OlFWOd-183" value="Public" style="shape=partialRectangle;html=1;whiteSpace=wrap;connectable=0;strokeColor=inherit;overflow=hidden;fillColor=none;top=0;left=0;bottom=0;right=0;pointerEvents=1;fontSize=16;" parent="b5eQ8oIe91yAA5OlFWOd-182" vertex="1">
          <mxGeometry width="111" height="53" as="geometry">
            <mxRectangle width="111" height="53" as="alternateBounds" />
          </mxGeometry>
        </mxCell>
        <mxCell id="b5eQ8oIe91yAA5OlFWOd-184" value="TCP" style="shape=partialRectangle;html=1;whiteSpace=wrap;connectable=0;strokeColor=inherit;overflow=hidden;fillColor=none;top=0;left=0;bottom=0;right=0;pointerEvents=1;fontSize=16;" parent="b5eQ8oIe91yAA5OlFWOd-182" vertex="1">
          <mxGeometry x="111" width="109" height="53" as="geometry">
            <mxRectangle width="109" height="53" as="alternateBounds" />
          </mxGeometry>
        </mxCell>
        <mxCell id="b5eQ8oIe91yAA5OlFWOd-185" value="80" style="shape=partialRectangle;html=1;whiteSpace=wrap;connectable=0;strokeColor=inherit;overflow=hidden;fillColor=none;top=0;left=0;bottom=0;right=0;pointerEvents=1;fontSize=16;" parent="b5eQ8oIe91yAA5OlFWOd-182" vertex="1">
          <mxGeometry x="220" width="109" height="53" as="geometry">
            <mxRectangle width="109" height="53" as="alternateBounds" />
          </mxGeometry>
        </mxCell>
        <mxCell id="b5eQ8oIe91yAA5OlFWOd-186" value="" style="shape=table;startSize=0;container=1;collapsible=0;childLayout=tableLayout;fontSize=16;" parent="1" vertex="1">
          <mxGeometry x="400" y="890" width="329" height="160" as="geometry" />
        </mxCell>
        <mxCell id="b5eQ8oIe91yAA5OlFWOd-187" value="" style="shape=tableRow;horizontal=0;startSize=0;swimlaneHead=0;swimlaneBody=0;strokeColor=inherit;top=0;left=0;bottom=0;right=0;collapsible=0;dropTarget=0;fillColor=none;points=[[0,0.5],[1,0.5]];portConstraint=eastwest;fontSize=16;" parent="b5eQ8oIe91yAA5OlFWOd-186" vertex="1">
          <mxGeometry width="329" height="53" as="geometry" />
        </mxCell>
        <mxCell id="b5eQ8oIe91yAA5OlFWOd-188" value="&amp;nbsp;Private-middle-end" style="shape=partialRectangle;html=1;whiteSpace=wrap;connectable=0;strokeColor=inherit;overflow=hidden;fillColor=none;top=0;left=0;bottom=0;right=0;pointerEvents=1;fontSize=16;" parent="b5eQ8oIe91yAA5OlFWOd-187" vertex="1">
          <mxGeometry width="111" height="53" as="geometry">
            <mxRectangle width="111" height="53" as="alternateBounds" />
          </mxGeometry>
        </mxCell>
        <mxCell id="b5eQ8oIe91yAA5OlFWOd-189" value="OUTBOUND" style="shape=partialRectangle;html=1;whiteSpace=wrap;connectable=0;strokeColor=inherit;overflow=hidden;fillColor=none;top=0;left=0;bottom=0;right=0;pointerEvents=1;fontSize=16;" parent="b5eQ8oIe91yAA5OlFWOd-187" vertex="1">
          <mxGeometry x="111" width="109" height="53" as="geometry">
            <mxRectangle width="109" height="53" as="alternateBounds" />
          </mxGeometry>
        </mxCell>
        <mxCell id="b5eQ8oIe91yAA5OlFWOd-190" style="shape=partialRectangle;html=1;whiteSpace=wrap;connectable=0;strokeColor=inherit;overflow=hidden;fillColor=none;top=0;left=0;bottom=0;right=0;pointerEvents=1;fontSize=16;" parent="b5eQ8oIe91yAA5OlFWOd-187" vertex="1">
          <mxGeometry x="220" width="109" height="53" as="geometry">
            <mxRectangle width="109" height="53" as="alternateBounds" />
          </mxGeometry>
        </mxCell>
        <mxCell id="b5eQ8oIe91yAA5OlFWOd-191" value="" style="shape=tableRow;horizontal=0;startSize=0;swimlaneHead=0;swimlaneBody=0;strokeColor=inherit;top=0;left=0;bottom=0;right=0;collapsible=0;dropTarget=0;fillColor=none;points=[[0,0.5],[1,0.5]];portConstraint=eastwest;fontSize=16;" parent="b5eQ8oIe91yAA5OlFWOd-186" vertex="1">
          <mxGeometry y="53" width="329" height="54" as="geometry" />
        </mxCell>
        <mxCell id="b5eQ8oIe91yAA5OlFWOd-192" value="Source" style="shape=partialRectangle;html=1;whiteSpace=wrap;connectable=0;strokeColor=inherit;overflow=hidden;fillColor=none;top=0;left=0;bottom=0;right=0;pointerEvents=1;fontSize=16;" parent="b5eQ8oIe91yAA5OlFWOd-191" vertex="1">
          <mxGeometry width="111" height="54" as="geometry">
            <mxRectangle width="111" height="54" as="alternateBounds" />
          </mxGeometry>
        </mxCell>
        <mxCell id="b5eQ8oIe91yAA5OlFWOd-193" value="Protocol" style="shape=partialRectangle;html=1;whiteSpace=wrap;connectable=0;strokeColor=inherit;overflow=hidden;fillColor=none;top=0;left=0;bottom=0;right=0;pointerEvents=1;fontSize=16;" parent="b5eQ8oIe91yAA5OlFWOd-191" vertex="1">
          <mxGeometry x="111" width="109" height="54" as="geometry">
            <mxRectangle width="109" height="54" as="alternateBounds" />
          </mxGeometry>
        </mxCell>
        <mxCell id="b5eQ8oIe91yAA5OlFWOd-194" value="Port range" style="shape=partialRectangle;html=1;whiteSpace=wrap;connectable=0;strokeColor=inherit;overflow=hidden;fillColor=none;top=0;left=0;bottom=0;right=0;pointerEvents=1;fontSize=16;" parent="b5eQ8oIe91yAA5OlFWOd-191" vertex="1">
          <mxGeometry x="220" width="109" height="54" as="geometry">
            <mxRectangle width="109" height="54" as="alternateBounds" />
          </mxGeometry>
        </mxCell>
        <mxCell id="b5eQ8oIe91yAA5OlFWOd-195" value="" style="shape=tableRow;horizontal=0;startSize=0;swimlaneHead=0;swimlaneBody=0;strokeColor=inherit;top=0;left=0;bottom=0;right=0;collapsible=0;dropTarget=0;fillColor=none;points=[[0,0.5],[1,0.5]];portConstraint=eastwest;fontSize=16;" parent="b5eQ8oIe91yAA5OlFWOd-186" vertex="1">
          <mxGeometry y="107" width="329" height="53" as="geometry" />
        </mxCell>
        <mxCell id="b5eQ8oIe91yAA5OlFWOd-196" value="0.0.0.0 /0" style="shape=partialRectangle;html=1;whiteSpace=wrap;connectable=0;strokeColor=inherit;overflow=hidden;fillColor=none;top=0;left=0;bottom=0;right=0;pointerEvents=1;fontSize=16;" parent="b5eQ8oIe91yAA5OlFWOd-195" vertex="1">
          <mxGeometry width="111" height="53" as="geometry">
            <mxRectangle width="111" height="53" as="alternateBounds" />
          </mxGeometry>
        </mxCell>
        <mxCell id="b5eQ8oIe91yAA5OlFWOd-197" value="All" style="shape=partialRectangle;html=1;whiteSpace=wrap;connectable=0;strokeColor=inherit;overflow=hidden;fillColor=none;top=0;left=0;bottom=0;right=0;pointerEvents=1;fontSize=16;" parent="b5eQ8oIe91yAA5OlFWOd-195" vertex="1">
          <mxGeometry x="111" width="109" height="53" as="geometry">
            <mxRectangle width="109" height="53" as="alternateBounds" />
          </mxGeometry>
        </mxCell>
        <mxCell id="b5eQ8oIe91yAA5OlFWOd-198" value="All" style="shape=partialRectangle;html=1;whiteSpace=wrap;connectable=0;strokeColor=inherit;overflow=hidden;fillColor=none;top=0;left=0;bottom=0;right=0;pointerEvents=1;fontSize=16;" parent="b5eQ8oIe91yAA5OlFWOd-195" vertex="1">
          <mxGeometry x="220" width="109" height="53" as="geometry">
            <mxRectangle width="109" height="53" as="alternateBounds" />
          </mxGeometry>
        </mxCell>
        <mxCell id="b5eQ8oIe91yAA5OlFWOd-199" value="" style="shape=table;startSize=0;container=1;collapsible=0;childLayout=tableLayout;fontSize=16;" parent="1" vertex="1">
          <mxGeometry x="400" y="1060" width="329" height="160" as="geometry" />
        </mxCell>
        <mxCell id="b5eQ8oIe91yAA5OlFWOd-200" value="" style="shape=tableRow;horizontal=0;startSize=0;swimlaneHead=0;swimlaneBody=0;strokeColor=inherit;top=0;left=0;bottom=0;right=0;collapsible=0;dropTarget=0;fillColor=none;points=[[0,0.5],[1,0.5]];portConstraint=eastwest;fontSize=16;" parent="b5eQ8oIe91yAA5OlFWOd-199" vertex="1">
          <mxGeometry width="329" height="53" as="geometry" />
        </mxCell>
        <mxCell id="b5eQ8oIe91yAA5OlFWOd-201" value="Private-back-end" style="shape=partialRectangle;html=1;whiteSpace=wrap;connectable=0;strokeColor=inherit;overflow=hidden;fillColor=none;top=0;left=0;bottom=0;right=0;pointerEvents=1;fontSize=16;" parent="b5eQ8oIe91yAA5OlFWOd-200" vertex="1">
          <mxGeometry width="111" height="53" as="geometry">
            <mxRectangle width="111" height="53" as="alternateBounds" />
          </mxGeometry>
        </mxCell>
        <mxCell id="b5eQ8oIe91yAA5OlFWOd-202" value="OUTBOUND" style="shape=partialRectangle;html=1;whiteSpace=wrap;connectable=0;strokeColor=inherit;overflow=hidden;fillColor=none;top=0;left=0;bottom=0;right=0;pointerEvents=1;fontSize=16;" parent="b5eQ8oIe91yAA5OlFWOd-200" vertex="1">
          <mxGeometry x="111" width="109" height="53" as="geometry">
            <mxRectangle width="109" height="53" as="alternateBounds" />
          </mxGeometry>
        </mxCell>
        <mxCell id="b5eQ8oIe91yAA5OlFWOd-203" style="shape=partialRectangle;html=1;whiteSpace=wrap;connectable=0;strokeColor=inherit;overflow=hidden;fillColor=none;top=0;left=0;bottom=0;right=0;pointerEvents=1;fontSize=16;" parent="b5eQ8oIe91yAA5OlFWOd-200" vertex="1">
          <mxGeometry x="220" width="109" height="53" as="geometry">
            <mxRectangle width="109" height="53" as="alternateBounds" />
          </mxGeometry>
        </mxCell>
        <mxCell id="b5eQ8oIe91yAA5OlFWOd-204" value="" style="shape=tableRow;horizontal=0;startSize=0;swimlaneHead=0;swimlaneBody=0;strokeColor=inherit;top=0;left=0;bottom=0;right=0;collapsible=0;dropTarget=0;fillColor=none;points=[[0,0.5],[1,0.5]];portConstraint=eastwest;fontSize=16;" parent="b5eQ8oIe91yAA5OlFWOd-199" vertex="1">
          <mxGeometry y="53" width="329" height="54" as="geometry" />
        </mxCell>
        <mxCell id="b5eQ8oIe91yAA5OlFWOd-205" value="Source" style="shape=partialRectangle;html=1;whiteSpace=wrap;connectable=0;strokeColor=inherit;overflow=hidden;fillColor=none;top=0;left=0;bottom=0;right=0;pointerEvents=1;fontSize=16;" parent="b5eQ8oIe91yAA5OlFWOd-204" vertex="1">
          <mxGeometry width="111" height="54" as="geometry">
            <mxRectangle width="111" height="54" as="alternateBounds" />
          </mxGeometry>
        </mxCell>
        <mxCell id="b5eQ8oIe91yAA5OlFWOd-206" value="Protocol" style="shape=partialRectangle;html=1;whiteSpace=wrap;connectable=0;strokeColor=inherit;overflow=hidden;fillColor=none;top=0;left=0;bottom=0;right=0;pointerEvents=1;fontSize=16;" parent="b5eQ8oIe91yAA5OlFWOd-204" vertex="1">
          <mxGeometry x="111" width="109" height="54" as="geometry">
            <mxRectangle width="109" height="54" as="alternateBounds" />
          </mxGeometry>
        </mxCell>
        <mxCell id="b5eQ8oIe91yAA5OlFWOd-207" value="Port range" style="shape=partialRectangle;html=1;whiteSpace=wrap;connectable=0;strokeColor=inherit;overflow=hidden;fillColor=none;top=0;left=0;bottom=0;right=0;pointerEvents=1;fontSize=16;" parent="b5eQ8oIe91yAA5OlFWOd-204" vertex="1">
          <mxGeometry x="220" width="109" height="54" as="geometry">
            <mxRectangle width="109" height="54" as="alternateBounds" />
          </mxGeometry>
        </mxCell>
        <mxCell id="b5eQ8oIe91yAA5OlFWOd-208" value="" style="shape=tableRow;horizontal=0;startSize=0;swimlaneHead=0;swimlaneBody=0;strokeColor=inherit;top=0;left=0;bottom=0;right=0;collapsible=0;dropTarget=0;fillColor=none;points=[[0,0.5],[1,0.5]];portConstraint=eastwest;fontSize=16;" parent="b5eQ8oIe91yAA5OlFWOd-199" vertex="1">
          <mxGeometry y="107" width="329" height="53" as="geometry" />
        </mxCell>
        <mxCell id="b5eQ8oIe91yAA5OlFWOd-209" value="0.0.0.0 /0" style="shape=partialRectangle;html=1;whiteSpace=wrap;connectable=0;strokeColor=inherit;overflow=hidden;fillColor=none;top=0;left=0;bottom=0;right=0;pointerEvents=1;fontSize=16;" parent="b5eQ8oIe91yAA5OlFWOd-208" vertex="1">
          <mxGeometry width="111" height="53" as="geometry">
            <mxRectangle width="111" height="53" as="alternateBounds" />
          </mxGeometry>
        </mxCell>
        <mxCell id="b5eQ8oIe91yAA5OlFWOd-210" value="Al" style="shape=partialRectangle;html=1;whiteSpace=wrap;connectable=0;strokeColor=inherit;overflow=hidden;fillColor=none;top=0;left=0;bottom=0;right=0;pointerEvents=1;fontSize=16;" parent="b5eQ8oIe91yAA5OlFWOd-208" vertex="1">
          <mxGeometry x="111" width="109" height="53" as="geometry">
            <mxRectangle width="109" height="53" as="alternateBounds" />
          </mxGeometry>
        </mxCell>
        <mxCell id="b5eQ8oIe91yAA5OlFWOd-211" value="All" style="shape=partialRectangle;html=1;whiteSpace=wrap;connectable=0;strokeColor=inherit;overflow=hidden;fillColor=none;top=0;left=0;bottom=0;right=0;pointerEvents=1;fontSize=16;" parent="b5eQ8oIe91yAA5OlFWOd-208" vertex="1">
          <mxGeometry x="220" width="109" height="53" as="geometry">
            <mxRectangle width="109" height="53" as="alternateBounds" />
          </mxGeometry>
        </mxCell>
        <mxCell id="b5eQ8oIe91yAA5OlFWOd-212" value="" style="shape=table;startSize=0;container=1;collapsible=0;childLayout=tableLayout;fontSize=16;" parent="1" vertex="1">
          <mxGeometry x="40" y="1060" width="329" height="160" as="geometry" />
        </mxCell>
        <mxCell id="b5eQ8oIe91yAA5OlFWOd-213" value="" style="shape=tableRow;horizontal=0;startSize=0;swimlaneHead=0;swimlaneBody=0;strokeColor=inherit;top=0;left=0;bottom=0;right=0;collapsible=0;dropTarget=0;fillColor=none;points=[[0,0.5],[1,0.5]];portConstraint=eastwest;fontSize=16;" parent="b5eQ8oIe91yAA5OlFWOd-212" vertex="1">
          <mxGeometry width="329" height="53" as="geometry" />
        </mxCell>
        <mxCell id="b5eQ8oIe91yAA5OlFWOd-214" value="&amp;nbsp;Private-rds" style="shape=partialRectangle;html=1;whiteSpace=wrap;connectable=0;strokeColor=inherit;overflow=hidden;fillColor=none;top=0;left=0;bottom=0;right=0;pointerEvents=1;fontSize=16;" parent="b5eQ8oIe91yAA5OlFWOd-213" vertex="1">
          <mxGeometry width="111" height="53" as="geometry">
            <mxRectangle width="111" height="53" as="alternateBounds" />
          </mxGeometry>
        </mxCell>
        <mxCell id="b5eQ8oIe91yAA5OlFWOd-215" value="INBOUND" style="shape=partialRectangle;html=1;whiteSpace=wrap;connectable=0;strokeColor=inherit;overflow=hidden;fillColor=none;top=0;left=0;bottom=0;right=0;pointerEvents=1;fontSize=16;" parent="b5eQ8oIe91yAA5OlFWOd-213" vertex="1">
          <mxGeometry x="111" width="109" height="53" as="geometry">
            <mxRectangle width="109" height="53" as="alternateBounds" />
          </mxGeometry>
        </mxCell>
        <mxCell id="b5eQ8oIe91yAA5OlFWOd-216" style="shape=partialRectangle;html=1;whiteSpace=wrap;connectable=0;strokeColor=inherit;overflow=hidden;fillColor=none;top=0;left=0;bottom=0;right=0;pointerEvents=1;fontSize=16;" parent="b5eQ8oIe91yAA5OlFWOd-213" vertex="1">
          <mxGeometry x="220" width="109" height="53" as="geometry">
            <mxRectangle width="109" height="53" as="alternateBounds" />
          </mxGeometry>
        </mxCell>
        <mxCell id="b5eQ8oIe91yAA5OlFWOd-217" value="" style="shape=tableRow;horizontal=0;startSize=0;swimlaneHead=0;swimlaneBody=0;strokeColor=inherit;top=0;left=0;bottom=0;right=0;collapsible=0;dropTarget=0;fillColor=none;points=[[0,0.5],[1,0.5]];portConstraint=eastwest;fontSize=16;" parent="b5eQ8oIe91yAA5OlFWOd-212" vertex="1">
          <mxGeometry y="53" width="329" height="54" as="geometry" />
        </mxCell>
        <mxCell id="b5eQ8oIe91yAA5OlFWOd-218" value="Source" style="shape=partialRectangle;html=1;whiteSpace=wrap;connectable=0;strokeColor=inherit;overflow=hidden;fillColor=none;top=0;left=0;bottom=0;right=0;pointerEvents=1;fontSize=16;" parent="b5eQ8oIe91yAA5OlFWOd-217" vertex="1">
          <mxGeometry width="111" height="54" as="geometry">
            <mxRectangle width="111" height="54" as="alternateBounds" />
          </mxGeometry>
        </mxCell>
        <mxCell id="b5eQ8oIe91yAA5OlFWOd-219" value="Protocol" style="shape=partialRectangle;html=1;whiteSpace=wrap;connectable=0;strokeColor=inherit;overflow=hidden;fillColor=none;top=0;left=0;bottom=0;right=0;pointerEvents=1;fontSize=16;" parent="b5eQ8oIe91yAA5OlFWOd-217" vertex="1">
          <mxGeometry x="111" width="109" height="54" as="geometry">
            <mxRectangle width="109" height="54" as="alternateBounds" />
          </mxGeometry>
        </mxCell>
        <mxCell id="b5eQ8oIe91yAA5OlFWOd-220" value="Port range" style="shape=partialRectangle;html=1;whiteSpace=wrap;connectable=0;strokeColor=inherit;overflow=hidden;fillColor=none;top=0;left=0;bottom=0;right=0;pointerEvents=1;fontSize=16;" parent="b5eQ8oIe91yAA5OlFWOd-217" vertex="1">
          <mxGeometry x="220" width="109" height="54" as="geometry">
            <mxRectangle width="109" height="54" as="alternateBounds" />
          </mxGeometry>
        </mxCell>
        <mxCell id="b5eQ8oIe91yAA5OlFWOd-221" value="" style="shape=tableRow;horizontal=0;startSize=0;swimlaneHead=0;swimlaneBody=0;strokeColor=inherit;top=0;left=0;bottom=0;right=0;collapsible=0;dropTarget=0;fillColor=none;points=[[0,0.5],[1,0.5]];portConstraint=eastwest;fontSize=16;" parent="b5eQ8oIe91yAA5OlFWOd-212" vertex="1">
          <mxGeometry y="107" width="329" height="53" as="geometry" />
        </mxCell>
        <mxCell id="b5eQ8oIe91yAA5OlFWOd-222" value="Public" style="shape=partialRectangle;html=1;whiteSpace=wrap;connectable=0;strokeColor=inherit;overflow=hidden;fillColor=none;top=0;left=0;bottom=0;right=0;pointerEvents=1;fontSize=16;" parent="b5eQ8oIe91yAA5OlFWOd-221" vertex="1">
          <mxGeometry width="111" height="53" as="geometry">
            <mxRectangle width="111" height="53" as="alternateBounds" />
          </mxGeometry>
        </mxCell>
        <mxCell id="b5eQ8oIe91yAA5OlFWOd-223" value="TCP" style="shape=partialRectangle;html=1;whiteSpace=wrap;connectable=0;strokeColor=inherit;overflow=hidden;fillColor=none;top=0;left=0;bottom=0;right=0;pointerEvents=1;fontSize=16;" parent="b5eQ8oIe91yAA5OlFWOd-221" vertex="1">
          <mxGeometry x="111" width="109" height="53" as="geometry">
            <mxRectangle width="109" height="53" as="alternateBounds" />
          </mxGeometry>
        </mxCell>
        <mxCell id="b5eQ8oIe91yAA5OlFWOd-224" value="3306" style="shape=partialRectangle;html=1;whiteSpace=wrap;connectable=0;strokeColor=inherit;overflow=hidden;fillColor=none;top=0;left=0;bottom=0;right=0;pointerEvents=1;fontSize=16;" parent="b5eQ8oIe91yAA5OlFWOd-221" vertex="1">
          <mxGeometry x="220" width="109" height="53" as="geometry">
            <mxRectangle width="109" height="53" as="alternateBounds" />
          </mxGeometry>
        </mxCell>
      </root>
    </mxGraphModel>
  </diagram>
</mxfile>
